<?xml version="1.0" standalone="no"?>
<!DOCTYPE svg PUBLIC "-//W3C//DTD SVG 20010904//EN"
 "http://www.w3.org/TR/2001/REC-SVG-20010904/DTD/svg10.dtd">
<svg version="1.0" xmlns="http://www.w3.org/2000/svg"
 width="1024.000000pt" height="1024.000000pt" viewBox="0 0 1024.000000 1024.000000"
 preserveAspectRatio="xMidYMid meet">
<metadata>
Created by potrace 1.11, written by Peter Selinger 2001-2013
</metadata>
<g transform="translate(0.000000,1024.000000) scale(0.100000,-0.100000)"
fill="#000000" stroke="none">
<path d="M854 10224 c-111 -18 -261 -74 -358 -131 -105 -63 -252 -204 -322
-309 -62 -93 -124 -236 -151 -346 -16 -68 -17 -187 -20 -1718 l-3 -1645 59
110 c159 300 350 561 591 809 274 281 544 483 860 643 272 138 564 222 875
253 170 17 670 18 725 2 106 -31 167 -105 172 -212 l3 -55 -35 -7 c-19 -4 -87
-12 -150 -18 -318 -30 -629 -109 -935 -237 -164 -69 -238 -107 -390 -198 -248
-147 -436 -294 -640 -499 -342 -344 -609 -769 -781 -1245 -223 -615 -267
-1309 -108 -1708 87 -217 230 -366 459 -479 183 -90 387 -134 619 -134 232 0
512 72 886 227 445 185 765 380 974 591 116 118 158 172 199 260 l32 67 3 664
3 663 -68 -6 c-232 -24 -518 -73 -983 -170 -812 -169 -1093 -226 -1116 -226
-32 0 -128 55 -154 87 -42 53 -19 122 70 213 61 62 223 186 278 214 73 37 545
117 1417 241 245 35 752 110 1025 151 222 34 352 46 687 60 122 6 149 4 192
-12 92 -33 137 -99 143 -209 l3 -59 -340 -141 -339 -140 -13 -45 c-27 -92 -62
-290 -82 -465 -56 -488 -67 -928 -52 -2022 6 -482 10 -878 8 -880 -3 -2 -43
-19 -90 -39 -141 -57 -226 -75 -367 -77 -145 -2 -194 9 -245 57 l-35 33 0 763
c0 419 -3 760 -7 758 -5 -1 -183 -120 -398 -263 -466 -311 -640 -419 -840
-518 -616 -308 -1105 -377 -1572 -222 -170 57 -336 151 -475 269 l-68 57 0
-1018 c0 -857 2 -1031 15 -1103 39 -224 138 -411 297 -566 141 -137 313 -231
501 -271 78 -17 297 -18 4307 -18 4010 0 4229 1 4307 18 194 42 379 144 519
289 152 155 241 330 279 548 13 71 15 229 15 955 l0 870 -107 1 c-60 1 -475 7
-923 13 -448 6 -1451 17 -2228 25 -777 8 -1415 16 -1418 18 -2 3 7 56 20 119
74 346 126 930 156 1774 16 430 22 1714 13 2680 -5 479 -7 872 -6 874 2 4 646
-20 651 -24 2 -2 -13 -1042 -32 -2312 -20 -1269 -36 -2349 -36 -2399 l0 -92
173 -6 c94 -4 897 -27 1782 -51 886 -24 1688 -47 1783 -51 l172 -6 0 3018 c0
2644 -2 3031 -15 3112 -36 224 -141 421 -311 583 -146 140 -330 230 -539 264
-130 21 -8395 21 -8521 -1z"/>
</g>
</svg>
